<?xml version="1.0" encoding="UTF-8" standalone="no"?>
<!-- Created with Inkscape (http://www.inkscape.org/) -->

<svg
   width="108"
   height="108"
   viewBox="0 0 108 108"
   version="1.1"
   id="svg5"
   inkscape:version="1.2.2 (b0a8486541, 2022-12-01)"
   sodipodi:docname="ic_launcher_background.svg"
   inkscape:export-filename="app_icon.png"
   inkscape:export-xdpi="96"
   inkscape:export-ydpi="96"
   xmlns:inkscape="http://www.inkscape.org/namespaces/inkscape"
   xmlns:sodipodi="http://sodipodi.sourceforge.net/DTD/sodipodi-0.dtd"
   xmlns="http://www.w3.org/2000/svg"
   xmlns:svg="http://www.w3.org/2000/svg">
  <sodipodi:namedview
     id="namedview7"
     pagecolor="#ffffff"
     bordercolor="#000000"
     borderopacity="0.25"
     inkscape:showpageshadow="2"
     inkscape:pageopacity="0.0"
     inkscape:pagecheckerboard="0"
     inkscape:deskcolor="#d1d1d1"
     inkscape:document-units="px"
     showgrid="true"
     inkscape:zoom="4.8566844"
     inkscape:cx="29.855759"
     inkscape:cy="44.98954"
     inkscape:window-width="1920"
     inkscape:window-height="1016"
     inkscape:window-x="0"
     inkscape:window-y="36"
     inkscape:window-maximized="1"
     inkscape:current-layer="layer2">
    <inkscape:grid
       type="xygrid"
       id="grid111"
       originx="0"
       originy="0" />
  </sodipodi:namedview>
  <defs
     id="defs2">
    <inkscape:path-effect
       effect="fillet_chamfer"
       id="path-effect604"
       is_visible="true"
       lpeversion="1"
       nodesatellites_param="F,1,0,1,0,0,0,1 @ F,1,0,1,0,0.06,0,1 @ F,1,0,1,0,0.06,0,1 @ F,1,0,1,0,0.06,0,1"
       unit="px"
       method="auto"
       mode="F"
       radius="6"
       chamfer_steps="1"
       flexible="true"
       use_knot_distance="true"
       apply_no_radius="true"
       apply_with_radius="true"
       only_selected="false"
       hide_knots="false" />
    <rect
       x="11.497734"
       y="8.0914965"
       width="9.4512997"
       height="1.8040941"
       id="rect600" />
  </defs>
  <g
     inkscape:groupmode="layer"
     id="layer2"
     inkscape:label="Background"
     style="display:inline;fill:#ff0000">
    <rect
       style="fill:#ff3d00;fill-opacity:1;stroke-width:2.67176"
       id="rect775"
       width="108"
       height="108"
       x="0"
       y="0"
       ry="0" />
  </g>
  <g
     inkscape:label="Foreground"
     inkscape:groupmode="layer"
     id="layer1"
     style="display:none"
     transform="matrix(2.4375,0,0,2.4528302,15,16.59434)">
    <rect
       style="fill:#000000;stroke-width:1.22474"
       id="rect117"
       width="12"
       height="20"
       x="10"
       y="2"
       ry="1.0029719" />
    <path
       id="rect227"
       d="m 20,22.5 h 2 l 2,6 h -2 z"
       sodipodi:nodetypes="ccccc"
       style="stroke-width:0.866025" />
    <path
       id="rect229"
       d="m 10,22.5 h 2 l -2,6 H 8 Z"
       sodipodi:nodetypes="ccccc"
       style="stroke-width:0.866025" />
    <circle
       style="fill:#ffffff"
       id="path433"
       cx="16"
       cy="7"
       r="1" />
    <circle
       style="fill:#000000;stroke-width:1.1141"
       id="path438"
       cx="16"
       cy="7"
       r="0.89999998" />
    <g
       aria-label="M"
       transform="scale(1.0007011,0.99929939)"
       id="text546"
       style="font-size:1.40154px;fill:#ffffff;stroke-width:1.05116">
      <path
         d="M 15.930626,7.5052567 15.601264,6.6278926 h -0.0056 q 0.0042,0.043448 0.007,0.1177294 0.0028,0.07288 0.0028,0.1527678 V 7.5052567 H 15.489141 V 6.5045571 h 0.186405 l 0.308338,0.8199009 h 0.0056 l 0.313945,-0.8199009 h 0.185003 v 1.0006996 h -0.12473 V 6.8899806 q 0,-0.07288 0.0028,-0.1443586 0.0042,-0.071479 0.007,-0.1163279 h -0.0056 L 16.03434,7.5052567 Z"
         id="path6682" />
    </g>
    <rect
       style="fill:#000000;stroke-width:1.18094"
       id="rect663"
       width="12"
       height="2"
       x="10"
       y="25"
       ry="0.50916451"
       rx="0" />
    <g
       aria-label="MASTERBUILT"
       transform="translate(0.07262011,1.7575914)"
       id="text598"
       style="font-size:1.33333px;white-space:pre;shape-inside:url(#rect600);display:inline;fill:#ffffff">
      <path
         d="M 12.047379,9.3049608 11.734046,8.4702962 h -0.0053 q 0.004,0.041333 0.0067,0.1119997 0.0027,0.069333 0.0027,0.145333 V 9.3049608 H 11.62738 V 8.3529631 h 0.177333 l 0.293332,0.7799981 h 0.0053 L 12.402011,8.3529631 H 12.57801 V 9.3049608 H 12.459378 V 8.7196289 q 0,-0.069333 0.0027,-0.137333 0.004,-0.068 0.0067,-0.1106664 h -0.0053 l -0.317333,0.8333313 z"
         id="path6659" />
      <path
         d="m 13.434042,9.3049608 -0.114667,-0.294666 h -0.377332 l -0.113333,0.294666 h -0.121333 l 0.371999,-0.9559976 h 0.108 l 0.370665,0.9559976 z M 13.176709,8.6156292 q -0.004,-0.010667 -0.01333,-0.038667 -0.0093,-0.028 -0.01867,-0.057333 -0.008,-0.030667 -0.01333,-0.046667 -0.0093,0.041333 -0.02133,0.081333 -0.012,0.038666 -0.02,0.061333 L 12.98205,8.9036274 h 0.301332 z"
         id="path6661" />
      <path
         d="m 14.228706,9.0502947 q 0,0.1266664 -0.092,0.1973329 -0.092,0.070666 -0.247999,0.070666 -0.08,0 -0.148,-0.012 -0.068,-0.012 -0.113333,-0.033333 V 9.1582945 q 0.048,0.021333 0.118667,0.038667 0.072,0.017333 0.147999,0.017333 0.106667,0 0.16,-0.041333 0.05467,-0.041333 0.05467,-0.1119997 0,-0.046667 -0.02,-0.078667 -0.02,-0.032 -0.06933,-0.058666 -0.048,-0.028 -0.134666,-0.058666 -0.121333,-0.044 -0.183999,-0.1079998 -0.06133,-0.064 -0.06133,-0.1746662 0,-0.076 0.03867,-0.129333 0.03867,-0.054666 0.106666,-0.084 0.06933,-0.029333 0.158667,-0.029333 0.07867,0 0.143999,0.014667 0.06533,0.014667 0.118667,0.038666 l -0.03733,0.1026665 q -0.04933,-0.021333 -0.107999,-0.036 -0.05733,-0.014667 -0.12,-0.014667 -0.08933,0 -0.134666,0.038667 -0.04533,0.037333 -0.04533,0.1 0,0.048 0.02,0.08 0.02,0.032 0.06533,0.057333 0.04533,0.025333 0.122666,0.054667 0.084,0.030667 0.141333,0.066667 0.05867,0.034667 0.088,0.084 0.03067,0.049333 0.03067,0.1239996 z"
         id="path6663" />
      <path
         d="m 14.722038,9.3049608 h -0.12 V 8.4582962 H 14.304706 V 8.3529631 h 0.713331 v 0.1053331 h -0.295999 z"
         id="path6665" />
      <path
         d="M 15.694035,9.3049608 H 15.162037 V 8.3529631 h 0.531998 v 0.1053331 h -0.411999 v 0.2973326 h 0.387999 v 0.1039998 h -0.387999 v 0.3399991 h 0.411999 z"
         id="path6667" />
      <path
         d="m 16.166034,8.3529631 q 0.177332,0 0.261332,0.068 0.08533,0.066667 0.08533,0.2026661 0,0.076 -0.028,0.1266664 -0.028,0.050667 -0.072,0.081333 -0.04267,0.029333 -0.09067,0.046667 l 0.261333,0.4266656 h -0.14 L 16.2127,8.9116284 H 16.023367 V 9.3049608 H 15.903368 V 8.3529631 Z m -0.0067,0.1039998 h -0.136 v 0.3533324 h 0.142667 q 0.115999,0 0.169332,-0.045333 0.05333,-0.046667 0.05333,-0.1359996 0,-0.093333 -0.056,-0.1319997 -0.056,-0.04 -0.173333,-0.04 z"
         id="path6669" />
      <path
         d="m 17.004698,8.3529631 q 0.178666,0 0.269333,0.053333 0.092,0.052 0.092,0.1826663 0,0.084 -0.04667,0.1399996 -0.04667,0.054666 -0.134666,0.070666 v 0.00667 q 0.06,0.00933 0.108,0.034667 0.04933,0.025333 0.07733,0.072 0.028,0.046667 0.028,0.121333 0,0.129333 -0.08933,0.1999995 -0.088,0.070666 -0.241332,0.070666 H 16.732699 V 8.3529631 Z m 0.024,0.4053324 q 0.122667,0 0.168,-0.038667 0.04533,-0.04 0.04533,-0.117333 0,-0.078666 -0.056,-0.1119998 -0.05467,-0.034667 -0.175999,-0.034667 h -0.157333 v 0.3026659 z m -0.175999,0.1 V 9.203628 h 0.191999 q 0.126666,0 0.176,-0.049333 0.04933,-0.049333 0.04933,-0.129333 0,-0.074666 -0.052,-0.1199997 -0.05067,-0.046667 -0.182666,-0.046667 z"
         id="path6671" />
      <path
         d="m 18.323361,8.9689616 q 0,0.098666 -0.04,0.1786662 -0.04,0.078666 -0.122666,0.1253331 -0.08133,0.045333 -0.208,0.045333 -0.177333,0 -0.270666,-0.096 -0.092,-0.097333 -0.092,-0.2559993 V 8.3529631 h 0.119999 v 0.6173318 q 0,0.1159998 0.06133,0.1799996 0.06267,0.064 0.188,0.064 0.129333,0 0.186666,-0.068 0.05867,-0.069333 0.05867,-0.1773329 V 8.3529631 h 0.118666 z"
         id="path6673" />
      <path
         d="m 18.842027,9.3049608 h -0.343999 v -0.069333 l 0.112,-0.025333 V 8.4489629 l -0.112,-0.026667 v -0.069333 h 0.343999 v 0.069333 l -0.111999,0.026667 v 0.7613315 l 0.111999,0.025333 z"
         id="path6675" />
      <path
         d="M 19.026028,9.3049608 V 8.3529631 h 0.12 v 0.8453313 h 0.415999 v 0.1066664 z"
         id="path6677" />
      <path
         d="m 19.999359,9.3049608 h -0.12 V 8.4582962 H 19.582026 V 8.3529631 h 0.713332 v 0.1053331 h -0.295999 z"
         id="path6679" />
    </g>
  </g>
</svg>
