<?xml version="1.0" encoding="UTF-8" standalone="no"?>
<!-- Created with Inkscape (http://www.inkscape.org/) -->

<svg
   width="512"
   height="512"
   viewBox="0 0 135.46667 135.46667"
   version="1.1"
   id="svg5"
   xml:space="preserve"
   inkscape:export-filename="../../www/public/favicon.png"
   inkscape:export-xdpi="9"
   inkscape:export-ydpi="9"
   inkscape:version="1.2.2 (b0a8486541, 2022-12-01)"
   sodipodi:docname="smoker_icon.svg"
   xmlns:inkscape="http://www.inkscape.org/namespaces/inkscape"
   xmlns:sodipodi="http://sodipodi.sourceforge.net/DTD/sodipodi-0.dtd"
   xmlns="http://www.w3.org/2000/svg"
   xmlns:svg="http://www.w3.org/2000/svg"><sodipodi:namedview
     id="namedview7"
     pagecolor="#ffffff"
     bordercolor="#000000"
     borderopacity="0.25"
     inkscape:showpageshadow="2"
     inkscape:pageopacity="0.0"
     inkscape:pagecheckerboard="0"
     inkscape:deskcolor="#d1d1d1"
     inkscape:document-units="mm"
     showgrid="false"
     inkscape:zoom="1.453125"
     inkscape:cx="255.65591"
     inkscape:cy="256"
     inkscape:window-width="1920"
     inkscape:window-height="960"
     inkscape:window-x="0"
     inkscape:window-y="1116"
     inkscape:window-maximized="1"
     inkscape:current-layer="g7045" /><defs
     id="defs2" /><g
     inkscape:groupmode="layer"
     id="layer3"
     inkscape:label="Background"
     style="display:inline;opacity:1"><rect
       style="display:inline;opacity:1;fill:#dd550b;fill-opacity:1;stroke-width:0.140009"
       id="rect4943"
       width="135.46666"
       height="135.46666"
       x="3.5603841e-06"
       y="3.5603841e-06" /></g><g
     inkscape:groupmode="layer"
     id="layer2"
     inkscape:label="40 Percent"
     style="display:none"><circle
       style="display:inline;opacity:0.25;fill:#282828;fill-opacity:1;stroke-width:0.264583"
       id="path4940"
       cx="67.73333"
       cy="67.73333"
       r="54.186668" /></g><g
     inkscape:label="Maskable Logo"
     inkscape:groupmode="layer"
     id="layer1"
     style="display:none"><path
       style="display:inline;fill:#282828;fill-opacity:1;stroke-width:0.0638715"
       d="m 45.555949,101.9238 c -0.09624,-0.0336 -0.203819,-0.14202 -0.248918,-0.2509 -0.06192,-0.14948 -0.07862,-1.92603 -0.07578,-8.060341 0.0019,-4.327738 0.02642,-7.905464 0.05426,-7.950513 0.03621,-0.05858 0.02508,-0.06651 -0.0391,-0.02786 -0.07641,0.04605 -0.0767,0.03805 -0.002,-0.05399 0.04822,-0.05947 0.06258,-0.1081 0.03193,-0.108135 -0.03065,-3.6e-5 -0.05331,-0.194044 -0.05037,-0.431138 0.0057,-0.459637 -0.08896,-0.739379 -0.274446,-0.810876 -0.06278,-0.02422 -0.545271,-0.05643 -1.072213,-0.07161 -1.417238,-0.04086 -1.843703,-0.08043 -1.916147,-0.177895 -0.03512,-0.04724 -0.200396,-0.106394 -0.367262,-0.13141 -0.166865,-0.025 -0.30339,-0.07727 -0.30339,-0.116093 0,-0.03883 -0.01786,-0.05274 -0.03972,-0.0309 -0.02185,0.02186 -0.187111,-0.03428 -0.367262,-0.124694 -0.513857,-0.257937 -1.363803,-1.203615 -1.468782,-1.634233 -0.02355,-0.0966 -0.07271,-0.175646 -0.109246,-0.175646 -0.03653,0 -0.05199,-0.02336 -0.03436,-0.05189 0.01762,-0.02855 -0.03816,-0.133605 -0.123986,-0.233486 -0.08582,-0.09988 -0.159635,-0.205868 -0.164028,-0.235534 -0.01736,-0.11726 -0.03739,-0.163843 -0.239995,-0.557743 -0.115415,-0.224398 -0.221803,-0.46152 -0.236419,-0.526941 -0.01461,-0.06541 -0.03894,-0.174558 -0.05404,-0.242541 -0.01511,-0.06798 -0.05955,-0.18354 -0.09876,-0.256806 -0.0392,-0.07326 -0.05603,-0.157905 -0.03737,-0.188091 0.02983,-0.04828 -0.141847,-0.705589 -0.276926,-1.060229 -0.02675,-0.07026 -0.05512,-0.268937 -0.06303,-0.441512 -0.0079,-0.172575 -0.05446,-0.409696 -0.103443,-0.526941 -0.04899,-0.117245 -0.06898,-0.213611 -0.04442,-0.214146 0.02455,-6.57e-4 0.01408,-0.02208 -0.02329,-0.0479 -0.08375,-0.05786 -0.341137,-1.282664 -0.368876,-1.755345 -0.0056,-0.09653 -0.03366,-0.175564 -0.06222,-0.175647 -0.02856,-6.5e-5 -0.0468,-0.05045 -0.04055,-0.111919 0.0062,-0.06148 0.0061,-0.126149 -3.26e-4,-0.143714 -0.0064,-0.01755 -0.02409,-0.125346 -0.03929,-0.239518 -0.01519,-0.114169 -0.04005,-0.300993 -0.05525,-0.415163 -0.01519,-0.114171 -0.03357,-0.207584 -0.04084,-0.207584 -0.0072,0 -0.02232,-0.100599 -0.03346,-0.223551 -0.06107,-0.674373 -0.104633,-1.012507 -0.15546,-1.206705 -0.03529,-0.134844 -0.03274,-0.261511 0.0067,-0.335327 0.04661,-0.08704 0.04161,-0.118628 -0.01872,-0.118628 -0.04604,0 -0.0842,-0.07732 -0.08671,-0.175647 -0.0083,-0.325492 -0.09084,-1.323997 -0.122741,-1.485016 -0.128893,-0.650533 -0.18157,-4.692107 -0.077,-5.908118 0.05365,-0.623914 0.10125,-1.311256 0.134905,-1.948083 0.04008,-0.758311 0.111694,-1.368415 0.167733,-1.428927 0.02837,-0.03062 0.03822,-0.09049 0.0219,-0.133009 -0.01631,-0.04253 0.0013,-0.204293 0.03906,-0.35948 0.09485,-0.389384 0.11582,-0.886418 0.04626,-1.09652 -0.04249,-0.128336 -0.103786,-0.178296 -0.227558,-0.185482 -0.09317,-0.0054 -1.756365,-0.01259 -3.695992,-0.01598 -3.197693,-0.0055 -3.536499,-0.01604 -3.63281,-0.112315 -0.09818,-0.09816 -0.107457,-1.02846 -0.122605,-12.301334 -0.0091,-6.707329 -0.03503,-12.25388 -0.05782,-12.325668 -0.02277,-0.07178 -0.15772,-0.207477 -0.299866,-0.301542 -0.242267,-0.160326 -0.252727,-0.179635 -0.167126,-0.308559 0.09231,-0.139033 0.530311,-0.321088 0.940619,-0.390978 0.122953,-0.02092 0.338519,-0.06538 0.479037,-0.09874 0.140518,-0.03335 0.269858,-0.06055 0.287424,-0.06042 0.03284,1.8e-4 0.617054,-0.05314 1.181621,-0.107983 0.352459,-0.03424 1.74186,-0.02926 2.043892,0.0072 0.105388,0.01277 0.392811,0.04085 0.638717,0.06241 0.245906,0.02157 0.533328,0.06471 0.638717,0.0959 0.105388,0.03116 0.281063,0.06949 0.390391,0.08512 0.241625,0.03456 0.40477,0.117822 0.55404,0.282763 0.133896,0.147953 0.06426,0.231359 -0.249029,0.298266 -0.109342,0.02335 -0.254172,0.106138 -0.321845,0.183969 -0.120324,0.138387 -0.122882,0.344156 -0.115682,9.30614 0.0041,5.040543 0.01236,9.197063 0.01847,9.236713 0.01566,0.101887 0.384792,0.243229 0.593635,0.227316 0.09653,-0.0073 0.195371,0.01874 0.219633,0.05801 0.0311,0.05031 0.06034,0.04579 0.09903,-0.01527 0.04479,-0.07069 0.05527,-0.069 0.05686,0.0091 0.0017,0.08516 0.0095,0.08516 0.06971,0 0.05125,-0.07249 0.07567,-0.07627 0.100283,-0.01556 0.01789,0.04413 0.05882,0.06399 0.09095,0.04413 0.03212,-0.01985 0.05842,-0.0082 0.05842,0.02589 0,0.08426 0.155006,0.05545 0.285844,-0.05315 0.09169,-0.0761 0.115475,-0.07569 0.165145,0.0028 0.05028,0.07945 0.05816,0.07932 0.059,-9.05e-4 7.73e-4,-0.07203 0.01801,-0.07558 0.07762,-0.01597 0.08571,0.0857 0.396637,0.106809 0.345099,0.02341 -0.0554,-0.08963 0.178392,-0.06331 0.288919,0.03253 0.08982,0.07789 0.109002,0.07674 0.141706,-0.0085 0.02123,-0.05532 0.115754,-0.09945 0.215475,-0.100595 0.265132,-0.003 0.37218,-0.116576 0.666279,-0.706713 0.14712,-0.295214 0.326933,-0.589147 0.399585,-0.653188 0.07266,-0.06404 0.13527,-0.150267 0.139152,-0.191615 0.0039,-0.04135 0.01144,-0.155916 0.01678,-0.254595 0.0053,-0.09868 0.03272,-0.165207 0.06081,-0.147842 0.0281,0.01737 0.08771,-0.02706 0.132459,-0.09872 0.05352,-0.08569 0.05628,-0.114785 0.0081,-0.08499 -0.04695,0.02902 -0.04292,-0.0075 0.01126,-0.101559 0.0724,-0.12576 0.157977,-0.232203 0.421622,-0.524456 0.186394,-0.206618 0.649541,-0.585663 0.882241,-0.722035 0.268946,-0.157611 0.920389,-0.369247 0.920389,-0.299007 0,0.01869 0.04159,-5.81e-4 0.09242,-0.04274 0.05084,-0.04219 0.172991,-0.06726 0.271454,-0.05573 0.266965,0.03129 0.351053,0.248373 0.34213,0.883248 -0.0042,0.298599 -0.0041,0.614764 1.28e-4,0.702588 0.0043,0.08782 0.0052,0.195606 0.0022,0.239518 -0.0031,0.04392 -0.0081,0.130139 -0.011,0.191615 -0.0029,0.06148 -0.02037,0.154888 -0.03872,0.207583 -0.03121,0.08962 -0.03919,0.946364 -0.01798,1.929262 0.0051,0.235554 -0.0093,0.458306 -0.032,0.495005 -0.02268,0.0367 -0.01798,0.06672 0.01043,0.06672 0.02842,-8e-6 0.05167,0.172438 0.05167,0.383213 0,0.210775 -0.01438,0.383233 -0.03193,0.383242 -0.01756,8e-6 -0.03194,0.100613 -0.03194,0.223566 0,0.122952 0.02085,0.22355 0.04632,0.22355 0.02547,0 0.019,0.07186 -0.0144,0.159678 -0.03795,0.09982 -0.03811,0.159681 -3.75e-4,0.159681 0.03316,0 0.04194,0.04783 0.01949,0.106282 -0.02673,0.06963 -0.01595,0.09094 0.03125,0.06177 0.04316,-0.02666 0.03613,0.02468 -0.01753,0.128104 -0.05903,0.113769 -0.06976,0.209616 -0.03149,0.281127 0.03194,0.05967 0.04118,0.125395 0.02054,0.146039 -0.05077,0.05077 -0.04362,0.914304 0.0082,0.998249 0.02272,0.03676 0.01472,0.06683 -0.01776,0.06683 -0.03411,0 -0.03933,0.107925 -0.01235,0.25549 0.02876,0.157221 0.02245,0.255484 -0.01641,0.255484 -0.03471,0 -0.02733,0.04312 0.01641,0.09581 0.04374,0.05269 0.05443,0.09625 0.02379,0.09678 -0.03065,6.57e-4 -0.01262,0.02885 0.04009,0.0629 0.05479,0.03541 0.06391,0.06234 0.02129,0.0629 -0.05439,6.57e-4 -0.07498,0.372389 -0.07622,1.37575 -0.0013,1.048365 0.01639,1.363917 0.07451,1.329043 0.05835,-0.03501 0.05881,-0.02414 0.0019,0.04637 -0.04878,0.06047 -0.07686,0.44304 -0.08176,1.114044 -0.0041,0.56207 -0.0088,1.065059 -0.01048,1.117754 -0.02758,0.871862 0.03795,4.266817 0.08345,4.323785 0.03354,0.04197 0.0515,0.142572 0.03992,0.223548 -0.01455,0.101653 0.04327,0.205235 0.186711,0.334627 0.114266,0.103071 0.207758,0.214252 0.207758,0.247074 0,0.09211 0.382983,0.405026 0.672959,0.549848 0.361111,0.180349 1.374277,0.206616 7.374858,0.191206 0.720152,-0.0017 1.812356,-0.0017 2.427121,6.55e-4 2.542848,0.0089 18.387902,0.01383 18.682436,0.0059 0.175647,-0.0048 4.127702,-0.0181 8.782344,-0.02963 4.654643,-0.01153 8.513422,-0.02581 8.575065,-0.03168 0.06164,-0.0059 0.188925,-0.05058 0.282846,-0.09931 0.09391,-0.04873 0.201565,-0.07018 0.23921,-0.04767 0.04164,0.02489 0.03973,0.0049 -0.0048,-0.05117 -0.0559,-0.07009 -0.05368,-0.110263 0.0091,-0.168099 0.04546,-0.0418 0.09922,-0.05937 0.119552,-0.03905 0.02033,0.02032 0.06579,-0.03889 0.101031,-0.131583 0.03526,-0.0927 0.09019,-0.168537 0.12208,-0.168537 0.03185,0 0.07489,-0.05029 0.09553,-0.111772 0.02064,-0.06148 0.06264,-0.154894 0.09333,-0.207585 0.03072,-0.05269 0.08418,-0.153292 0.118866,-0.223551 0.0408,-0.08261 0.05882,-3.322863 0.05106,-9.169929 -0.01092,-8.220131 -0.003,-9.053632 0.09058,-9.168085 0.100063,-0.122786 0.362818,-0.155127 0.581641,-0.0716 0.05267,0.02012 0.210775,0.05484 0.351294,0.07716 0.14052,0.02232 0.427939,0.122773 0.638716,0.223229 0.436582,0.208074 1.074791,0.749204 1.027859,0.871508 -0.02065,0.05374 0.0039,0.06817 0.07169,0.04215 0.06867,-0.02633 0.08761,-0.01458 0.05684,0.03518 -0.02544,0.04111 -0.01662,0.07472 0.01948,0.07472 0.03612,0 0.04717,0.0481 0.02467,0.106895 -0.03248,0.08455 -0.01577,0.0972 0.0799,0.0605 0.06651,-0.02552 0.101942,-0.02742 0.07874,-0.0043 -0.0232,0.0232 0.02521,0.114861 0.107599,0.203698 0.175373,0.189132 0.669055,1.161559 0.713158,1.40471 0.0167,0.09216 0.04964,0.198313 0.07307,0.235904 0.0235,0.03759 0.05049,0.118306 0.06001,0.179365 0.0095,0.06106 0.09004,0.261822 0.178962,0.446137 0.08892,0.184316 0.173587,0.393038 0.188163,0.463828 0.01454,0.07079 0.0614,0.229303 0.10402,0.352256 0.156287,0.450682 0.167996,0.493641 0.208773,0.766459 0.01315,0.08782 0.05823,0.245197 0.100191,0.349719 0.04199,0.104522 0.09069,0.305718 0.108233,0.447103 0.01756,0.141381 0.04918,0.300174 0.07029,0.352867 0.02111,0.05268 0.04392,0.174105 0.05081,0.269806 0.007,0.0957 0.04361,0.211561 0.0817,0.257471 0.03813,0.0459 0.08387,0.154433 0.101722,0.241164 0.01786,0.08674 0.04818,0.229554 0.06743,0.317377 0.01918,0.08782 0.06627,0.331377 0.104476,0.541233 0.0382,0.209854 0.0964,0.431757 0.129237,0.493112 0.03287,0.06136 0.07269,0.248938 0.08851,0.416842 0.01585,0.167905 0.04254,0.377134 0.05931,0.464958 0.01678,0.08782 0.04903,0.332132 0.07169,0.542908 0.02266,0.210778 0.05073,0.455086 0.06241,0.542909 0.09717,0.732205 0.155166,1.620651 0.169898,2.602767 0.0054,0.360078 0.0266,0.654687 0.0471,0.654691 0.04996,1.4e-5 0.06496,0.347946 0.08684,2.015733 l 0.01848,1.408964 0.168962,0.182215 0.168963,0.182215 2.447688,-0.0078 c 1.346219,-0.0043 2.634499,-0.0056 2.862849,-0.0031 0.22834,0.0024 0.45109,0.0014 0.49501,-0.0027 0.19008,-0.0173 0.26615,-0.01747 0.75471,-0.0017 0.28335,0.0091 0.55366,-0.0072 0.60067,-0.03627 0.0487,-0.03011 0.0702,-0.02799 0.0498,0.005 -0.0395,0.06396 4.08797,0.07007 4.25416,0.0063 0.0555,-0.0213 0.11458,-0.01677 0.1312,0.01014 0.0167,0.02691 0.18425,0.03195 0.37252,0.01123 0.18826,-0.02072 0.42707,-0.02042 0.5307,6.56e-4 0.10361,0.0211 0.60004,0.02991 1.10315,0.01959 0.87967,-0.01803 0.92006,-0.01317 1.05388,0.126208 0.0765,0.07973 0.14864,0.186491 0.16024,0.237257 0.0116,0.05076 0.0494,0.109819 0.0841,0.131235 0.0347,0.0214 0.0711,0.07917 0.0808,0.128346 0.01,0.04917 0.0536,0.175638 0.0972,0.28103 0.0437,0.105384 0.0929,0.249097 0.10936,0.319356 0.0493,0.210066 0.0599,0.248446 0.11488,0.415165 0.0289,0.08782 0.0766,0.175208 0.10593,0.194186 0.0453,0.02929 0.14996,0.448288 0.27148,1.086439 0.0164,0.08607 0.045,0.199598 0.0635,0.252292 0.0186,0.05269 0.0482,0.211487 0.0657,0.352869 0.0176,0.141384 0.0589,0.328209 0.092,0.415165 0.0331,0.08695 0.061,0.180086 0.0622,0.206957 0.005,0.126991 0.15825,0.999754 0.2124,1.211969 0.0468,0.183431 0.10118,0.248719 0.23429,0.281288 0.0953,0.02331 0.19711,0.07392 0.22612,0.112417 0.0374,0.04965 0.0622,0.04679 0.0852,-0.0098 0.0178,-0.04391 0.0604,-0.07984 0.0947,-0.07984 0.0343,0 0.0445,0.02875 0.0229,0.06387 -0.0217,0.03513 0.004,0.06387 0.0563,0.06387 0.0527,0 0.11357,-0.02875 0.13529,-0.06387 0.0217,-0.03513 0.0826,-0.06387 0.13527,-0.06387 0.0533,0 0.0766,0.0311 0.0523,0.07025 -0.0305,0.04931 -0.003,0.04861 0.0922,-0.0024 0.112,-0.05994 0.16063,-0.04929 0.27917,0.06109 0.12354,0.11504 0.14659,0.211494 0.16539,0.692221 0.027,0.689366 -0.003,0.72202 -0.6797,0.760594 -0.29586,0.01683 -0.52863,0.06311 -0.58417,0.116108 -0.12181,0.116235 -0.16274,0.860931 -0.0512,0.933078 0.0618,0.04 0.0582,0.06576 -0.016,0.114503 -0.0527,0.03459 -0.0645,0.06333 -0.0263,0.06387 0.0422,6.56e-4 0.0673,0.13879 0.0638,0.352281 -0.003,0.193218 0.01,0.351298 0.0292,0.351294 0.0885,-2.3e-5 0.12191,5.798295 0.0378,6.546826 -0.0236,0.210777 -0.0502,0.455084 -0.0589,0.542908 -0.009,0.08782 -0.0386,0.195608 -0.0665,0.239521 -0.0285,0.04498 -0.0217,0.07984 0.0156,0.07984 0.0435,0 0.046,0.05279 0.008,0.154245 -0.0644,0.169425 0.0205,0.579154 0.13466,0.649706 0.0374,0.02315 0.2448,0.05023 0.46071,0.06012 0.50318,0.02309 0.46321,0.01408 0.57963,0.130503 0.0776,0.07759 0.10036,0.242474 0.10036,0.7267 0,0.747948 -0.0347,0.795549 -0.59392,0.813605 -0.52243,0.01689 -0.72854,0.111518 -0.78721,0.361525 -0.10587,0.451097 -0.13331,0.604375 -0.18638,1.041173 -0.0249,0.205562 -0.0572,0.431244 -0.0717,0.5015 -0.0145,0.07026 -0.0419,0.257083 -0.0611,0.41517 -0.0192,0.158073 -0.0628,0.397004 -0.0969,0.530944 -0.0675,0.264789 -0.0915,0.407664 -0.18858,1.124087 -0.0353,0.260368 -0.1228,0.634021 -0.19443,0.83033 -0.0716,0.196299 -0.14498,0.414406 -0.16296,0.484661 -0.018,0.07027 -0.0729,0.21831 -0.12216,0.32901 -0.0492,0.1107 -0.0894,0.220057 -0.0894,0.243023 0,0.02297 -0.0612,0.176703 -0.13594,0.341643 -0.17119,0.377644 -0.48426,0.778927 -0.60772,0.778927 -0.0518,0 -0.0801,0.02282 -0.0629,0.05066 0.0173,0.02776 -0.0458,0.05738 -0.13993,0.06573 -0.0942,0.0082 -0.25097,0.02474 -0.34843,0.03658 -0.0975,0.01183 -0.19287,-0.0039 -0.21199,-0.0348 -0.0191,-0.03094 -0.0582,-0.04184 -0.0868,-0.02413 -0.0286,0.01763 -4.60437,0.0338 -10.16831,0.03588 -8.817109,0.0031 -10.145492,-0.0085 -10.343742,-0.09131 -0.246685,-0.103076 -0.400804,-0.2489 -0.333829,-0.315878 0.02309,-0.02304 0.01343,-0.04199 -0.02148,-0.04199 -0.04146,0 -0.06174,-1.412635 -0.05845,-4.071813 0.003,-2.2395 -0.0048,-4.14649 -0.01682,-4.237743 -0.01205,-0.09127 -0.08724,-0.2479 -0.167123,-0.348077 -0.142738,-0.179005 -0.1561,-0.182047 -0.776602,-0.176656 -1.306898,0.01139 -1.349589,0.025 -1.383001,0.441592 -0.01103,0.137483 -0.04487,0.290141 -0.07521,0.339227 -0.0343,0.05553 -0.03126,0.0745 0.008,0.05022 0.03977,-0.02457 0.06116,0.149139 0.05777,0.469153 -0.0031,0.279505 -0.02865,0.5082 -0.05707,0.5082 -0.0284,1.7e-5 -0.02925,0.03596 -0.0017,0.07986 0.08737,0.14 0.09076,0.324464 0.007,0.377666 -0.05446,0.03454 -0.05698,0.05183 -0.0077,0.0525 0.10979,0.0012 0.114907,5.604943 0.0053,5.740474 -0.05665,0.07001 -0.05747,0.08456 -0.0031,0.05183 0.112667,-0.06758 0.115886,6.092796 0.0031,6.164358 -0.05445,0.03459 -0.05623,0.05052 -0.0056,0.05115 0.05299,5.97e-4 0.07579,0.449145 0.0822,1.617655 0.0087,1.57717 0.0055,1.61972 -0.128006,1.74051 -0.126238,0.11418 -0.240653,0.12381 -1.47139,0.12381 -0.846422,0 -1.334879,-0.0234 -1.335513,-0.0638 -6.56e-4,-0.0424 -0.0168,-0.0423 -0.04793,0 -0.02581,0.0352 -0.243612,0.064 -0.484012,0.0638 -0.408689,0 -0.447096,-0.0127 -0.591216,-0.19185 l -0.154128,-0.19162 0.0048,-8.538829 c 0.0031,-5.766744 -0.01666,-8.578889 -0.06126,-8.662227 -0.03633,-0.06789 -0.17482,-0.148714 -0.307776,-0.17965 -0.20865,-0.04856 -30.483861,-0.07208 -32.52069,-0.0253 -0.564251,0.01295 -0.752008,0.0399 -0.841119,0.120614 -0.109269,0.099 -0.11487,0.513345 -0.117875,8.71875 -0.0028,7.681402 -0.01392,8.631242 -0.102459,8.766372 -0.05462,0.0834 -0.14894,0.15587 -0.209606,0.16112 -0.468023,0.0406 -3.473362,0.01 -3.60724,-0.0368 z M 42.633791,49.867498 c 0,-0.01549 -0.02874,-0.04593 -0.06387,-0.06764 -0.03513,-0.02171 -0.06387,-0.0091 -0.06387,0.02817 0,0.0372 0.02874,0.06764 0.06387,0.06764 0.03512,0 0.06387,-0.01268 0.06387,-0.02817 z m 2.53085,16.871615 c -0.109052,-0.03635 -0.161909,-0.113148 -0.187837,-0.272917 -0.01985,-0.122281 -0.03594,-3.131822 -0.03577,-6.687866 1.81e-4,-3.556044 -0.0013,-7.112236 -0.0032,-7.902647 -0.0033,-1.315045 0.02196,-2.060441 0.08083,-2.395185 0.02175,-0.123623 0.07684,-0.128091 1.708984,-0.138554 0.927582,-0.006 1.97919,-0.01664 2.336902,-0.02377 l 0.650387,-0.01296 0.03766,-0.231719 c 0.02072,-0.127446 0.04862,-0.398849 0.06201,-0.603118 0.04292,-0.654898 -0.100319,-0.619586 2.489731,-0.613738 1.606561,0.0036 2.270197,0.02627 2.342832,0.07994 0.171003,0.126338 0.241771,0.323403 0.257963,0.718345 0.01645,0.401254 0.09847,0.621563 0.243214,0.65326 0.0693,0.01518 23.082552,0.03138 23.355038,0.01645 0.130218,-0.0072 0.217837,-0.328084 0.217837,-0.797936 v -0.468754 l 0.224255,-0.106417 c 0.123346,-0.05853 0.252686,-0.08886 0.287423,-0.06738 0.03474,0.02147 0.09624,0.0186 0.13666,-0.0064 0.04043,-0.02498 0.464371,-0.03744 0.942108,-0.02768 0.477736,0.0098 1.314114,0.01525 1.85862,0.01221 0.989229,-0.0055 1.451933,0.02788 1.380142,0.09967 -0.02092,0.02095 0.02643,0.07111 0.105248,0.111472 0.101517,0.05199 0.13977,0.123948 0.131109,0.246676 -0.0067,0.09531 0.01174,0.158463 0.04107,0.140346 0.02933,-0.01812 0.02946,0.07277 6.56e-4,0.201955 -0.05676,0.251651 -0.01795,0.37046 0.179412,0.549062 0.113491,0.102704 0.326008,0.11405 2.379065,0.127029 2.092002,0.01323 2.255631,0.0223 2.270833,0.126024 0.0091,0.06148 -0.01151,0.111776 -0.0456,0.111776 -0.03457,0 -0.03914,0.03531 -0.01031,0.07984 0.07726,0.119366 0.06618,2.219333 -0.01171,2.220516 -0.03836,5.81e-4 -0.03612,0.01993 0.0056,0.04791 0.08205,0.05504 0.08536,1.279416 0.0038,1.406994 -0.02905,0.04545 -0.0254,0.117307 0.0081,0.159679 0.07021,0.08873 0.06338,0.743722 -0.009,0.860788 -0.02792,0.04519 -0.01649,0.07852 0.02694,0.07852 0.05324,0 0.04963,0.03184 -0.01219,0.108067 -0.05035,0.06207 -0.05547,0.08877 -0.01205,0.06272 0.08311,-0.04985 0.08051,0.190942 -0.0035,0.326921 -0.02696,0.04365 -0.01492,0.07714 0.0278,0.07714 0.05623,0 0.05521,0.02442 -0.004,0.09581 -0.0641,0.07724 -0.06253,0.096 0.0081,0.09678 0.06885,7.73e-4 0.06711,0.01426 -0.0081,0.0629 -0.05269,0.03406 -0.06359,0.06236 -0.0242,0.0629 0.08983,0.0013 0.08284,0.652022 -0.0077,0.718557 -0.03915,0.02875 -0.03189,0.04731 0.01878,0.0479 0.08975,9.96e-4 0.08075,0.198699 -0.01209,0.265986 -0.03185,0.02308 -0.03359,0.09385 -0.004,0.159681 0.0744,0.165081 0.0731,0.364745 -0.0027,0.42161 -0.04259,0.03192 -0.04259,0.06387 0,0.09581 0.09018,0.06763 0.114578,0.354466 0.02547,0.299392 -0.0489,-0.03021 -0.05204,-0.0072 -0.01035,0.07612 0.07064,0.141153 0.06893,0.406044 -0.0034,0.51868 -0.03158,0.04924 -0.01919,0.08022 0.03239,0.08082 0.06075,6.55e-4 0.05742,0.01789 -0.01219,0.0629 -0.06322,0.04086 -0.06879,0.06225 -0.01635,0.0629 0.08307,9.96e-4 0.08022,0.16747 -0.0053,0.30437 -0.02741,0.04391 -0.02755,0.115767 -6.55e-4,0.159677 0.07615,0.122857 0.06676,3.432909 -0.0097,3.434078 -0.03766,6.55e-4 -0.03516,0.02034 0.0061,0.0479 0.09221,0.06164 0.08826,1.752559 -0.0043,1.818383 -0.04313,0.03069 -0.0397,0.04726 0.0099,0.04791 0.09285,0.0014 0.08333,0.256069 -0.0096,0.257442 -0.03644,6.56e-4 -0.02314,0.02929 0.02956,0.06387 0.08516,0.0559 0.08516,0.06989 0,0.125787 -0.07535,0.04946 -0.07708,0.06311 -0.0081,0.06387 0.07067,6.56e-4 0.07225,0.01956 0.0081,0.09679 -0.04373,0.05269 -0.05406,0.09581 -0.02294,0.09581 0.06841,0 0.07489,0.863546 0.007,0.93145 -0.0651,0.06511 -0.06098,0.169987 0.0051,0.129163 0.04547,-0.0281 0.05044,0.187428 0.0065,0.280688 -0.03025,0.0642 -0.04489,0.163944 -0.0521,0.355055 -0.004,0.107457 -0.04817,0.251167 -0.09802,0.319361 -0.08943,0.122304 -0.382026,0.123981 -21.62053,0.123981 -11.841428,0 -21.59816,-0.02277 -21.681627,-0.05058 z"
       id="path348"
       sodipodi:nodetypes="cscsccssccsssccsscsssssssssscsccccssscscssssssscsscsccsscccsccccsssccccscsssssscsssscssccssscsssccsccssccssssscsssssscscsscscsscscssssscccscssccsssscsscsssccsscsccscssccccssccscsccsscssscccscccscscscscssccccssccscssscscsssccsccsssccscccscccsssscsscssscscsccscccccsccscssscscccsccccsssccsccssscsscccsssssssscscscsscssscscssccccscscsscssssscsssssscsscscsccsssccscscccsccssccsssscssss" /></g><g
     inkscape:label="Any Logo"
     inkscape:groupmode="layer"
     id="g7045"
     style="display:inline"
     transform="matrix(1.5360158,0,0,1.9312913,-42.757276,-63.079464)"><path
       style="display:inline;fill:#282828;fill-opacity:1;stroke-width:0.0587618"
       d="m 47.66605,99.188643 c -0.08854,-0.03091 -0.187514,-0.130659 -0.229005,-0.230828 -0.05697,-0.137522 -0.07233,-1.771948 -0.06972,-7.415514 0.0017,-3.981519 0.02431,-7.273027 0.04992,-7.314472 0.03331,-0.05389 0.02307,-0.06119 -0.03597,-0.02563 -0.0703,0.04237 -0.07056,0.03501 -0.0018,-0.04967 0.04436,-0.05471 0.05757,-0.09945 0.02938,-0.09948 -0.0282,-3.3e-5 -0.04905,-0.178521 -0.04634,-0.396647 0.0052,-0.422866 -0.08184,-0.680229 -0.25249,-0.746006 -0.05776,-0.02228 -0.501649,-0.05191 -0.986436,-0.06588 -1.303859,-0.03759 -1.696207,-0.074 -1.762855,-0.163663 -0.03231,-0.04346 -0.184365,-0.09788 -0.337881,-0.120898 -0.153516,-0.023 -0.279119,-0.07109 -0.279119,-0.106805 0,-0.03572 -0.01643,-0.04852 -0.03654,-0.02843 -0.0201,0.02011 -0.172142,-0.03154 -0.337881,-0.114719 -0.472748,-0.237302 -1.254698,-1.107326 -1.351279,-1.503494 -0.02167,-0.08887 -0.06689,-0.161594 -0.100506,-0.161594 -0.03361,0 -0.04783,-0.02149 -0.03161,-0.04774 0.01621,-0.02627 -0.03511,-0.122917 -0.114067,-0.214807 -0.07895,-0.09189 -0.146864,-0.189399 -0.150905,-0.216692 -0.01597,-0.107879 -0.0344,-0.150735 -0.220796,-0.513123 -0.106182,-0.206446 -0.204059,-0.424599 -0.217505,-0.484786 -0.01344,-0.06018 -0.03582,-0.160593 -0.04972,-0.223138 -0.0139,-0.06254 -0.05479,-0.168856 -0.09086,-0.236261 -0.03606,-0.0674 -0.05155,-0.145273 -0.03438,-0.173044 0.02744,-0.04442 -0.130499,-0.649142 -0.254772,-0.97541 -0.02461,-0.06464 -0.05071,-0.247422 -0.05799,-0.406191 -0.0073,-0.158769 -0.0501,-0.376921 -0.09517,-0.484786 -0.04507,-0.107866 -0.06346,-0.196522 -0.04087,-0.197015 0.02259,-6.04e-4 0.01295,-0.02031 -0.02143,-0.04407 -0.07705,-0.05323 -0.313846,-1.18005 -0.339366,-1.614917 -0.0052,-0.08881 -0.03097,-0.161519 -0.05724,-0.161595 -0.02627,-6e-5 -0.04306,-0.04641 -0.03731,-0.102966 0.0057,-0.05656 0.0056,-0.116057 -3e-4,-0.132216 -0.0059,-0.01615 -0.02216,-0.115319 -0.03615,-0.220357 -0.01397,-0.105036 -0.03685,-0.276914 -0.05083,-0.38195 -0.01398,-0.105037 -0.03088,-0.190977 -0.03757,-0.190977 -0.0066,0 -0.02053,-0.09255 -0.03078,-0.205667 -0.05618,-0.620423 -0.09626,-0.931507 -0.143023,-1.110169 -0.03247,-0.124056 -0.03012,-0.24059 0.0062,-0.308501 0.04288,-0.08008 0.03828,-0.109137 -0.01722,-0.109137 -0.04236,0 -0.07746,-0.07113 -0.07977,-0.161596 -0.0076,-0.299452 -0.08357,-1.218077 -0.112922,-1.366214 -0.118581,-0.598491 -0.167044,-4.316739 -0.07084,-5.435469 0.04936,-0.574001 0.09315,-1.206355 0.124113,-1.792236 0.03687,-0.697646 0.102759,-1.258942 0.154314,-1.314613 0.0261,-0.02817 0.03516,-0.08325 0.02015,-0.122368 -0.015,-0.03913 0.0012,-0.18795 0.03594,-0.330722 0.08726,-0.358233 0.106554,-0.815504 0.04256,-1.008798 -0.03909,-0.118069 -0.09548,-0.164032 -0.209354,-0.170644 -0.08572,-0.005 -1.615855,-0.01158 -3.400312,-0.0147 -2.941878,-0.0051 -3.253579,-0.01476 -3.342185,-0.10333 -0.09033,-0.09031 -0.09886,-0.946183 -0.112797,-11.317227 -0.0084,-6.170743 -0.03223,-11.27357 -0.05319,-11.339614 -0.02095,-0.06604 -0.145103,-0.190879 -0.275877,-0.277419 -0.222886,-0.1475 -0.232509,-0.165264 -0.153756,-0.283874 0.08493,-0.127911 0.487886,-0.295401 0.86537,-0.3597 0.113116,-0.01925 0.311437,-0.06015 0.440714,-0.09084 0.129276,-0.03068 0.248269,-0.05571 0.26443,-0.05559 0.03021,1.65e-4 0.567689,-0.04889 1.087091,-0.09934 0.324262,-0.0315 1.602511,-0.02692 1.880381,0.0066 0.09696,0.01175 0.361386,0.03758 0.587619,0.05742 0.226234,0.01984 0.490662,0.05953 0.58762,0.08823 0.09696,0.02867 0.258578,0.06393 0.35916,0.07831 0.222295,0.03179 0.372388,0.108396 0.509716,0.260142 0.123185,0.136117 0.05912,0.21285 -0.229106,0.274405 -0.100595,0.02148 -0.233839,0.09765 -0.296098,0.169251 -0.110698,0.127316 -0.113051,0.316624 -0.106427,8.561649 0.0038,4.637299 0.01137,8.461298 0.01699,8.497776 0.01441,0.09374 0.354009,0.22377 0.546144,0.20913 0.08881,-0.0067 0.179742,0.01724 0.202063,0.05337 0.02861,0.04629 0.05551,0.04213 0.09111,-0.01405 0.04121,-0.06504 0.05085,-0.06348 0.05231,0.0084 0.0016,0.07835 0.0087,0.07835 0.06413,0 0.04715,-0.06669 0.06962,-0.07017 0.09226,-0.01432 0.01646,0.0406 0.05412,0.05887 0.08367,0.0406 0.02955,-0.01826 0.05375,-0.0075 0.05375,0.02382 0,0.07752 0.142605,0.05101 0.262976,-0.0489 0.08435,-0.07001 0.106237,-0.06963 0.151933,0.0026 0.04626,0.07309 0.05351,0.07297 0.05428,-8.32e-4 7.12e-4,-0.06627 0.01657,-0.06953 0.07141,-0.01469 0.07885,0.07884 0.364906,0.09826 0.317491,0.02154 -0.05097,-0.08246 0.164121,-0.05824 0.265805,0.02993 0.08263,0.07166 0.100282,0.0706 0.13037,-0.0078 0.01953,-0.05089 0.106494,-0.09149 0.198237,-0.09255 0.243921,-0.0028 0.342406,-0.10725 0.612977,-0.650176 0.13535,-0.271597 0.300778,-0.542016 0.367618,-0.600933 0.06685,-0.05892 0.124448,-0.138246 0.12802,-0.176286 0.0036,-0.03804 0.01052,-0.143443 0.01544,-0.234227 0.0049,-0.09079 0.0301,-0.151991 0.05595,-0.136015 0.02585,0.01598 0.08069,-0.0249 0.121863,-0.09082 0.04924,-0.07883 0.05178,-0.105603 0.0075,-0.07819 -0.04319,0.0267 -0.03949,-0.0069 0.01036,-0.09343 0.06661,-0.115699 0.145339,-0.213626 0.387892,-0.482499 0.171483,-0.190089 0.597578,-0.53881 0.811662,-0.664272 0.24743,-0.145002 0.846758,-0.339707 0.846758,-0.275087 0,0.01719 0.03826,-5.34e-4 0.08503,-0.03932 0.04677,-0.03881 0.159152,-0.06188 0.249738,-0.05127 0.245608,0.02879 0.322969,0.228503 0.314759,0.812588 -0.0039,0.274711 -0.0038,0.565583 1.18e-4,0.646381 0.004,0.08079 0.0048,0.179958 0.002,0.220357 -0.0029,0.04041 -0.0075,0.119727 -0.01012,0.176285 -0.0027,0.05656 -0.01874,0.142497 -0.03562,0.190977 -0.02871,0.08245 -0.03605,0.870655 -0.01654,1.774921 0.0047,0.216709 -0.0086,0.421641 -0.02944,0.455404 -0.02087,0.03376 -0.01654,0.06138 0.0096,0.06138 0.02615,-8e-6 0.04754,0.158643 0.04754,0.352556 0,0.193913 -0.01323,0.352574 -0.02937,0.352582 -0.01616,8e-6 -0.02939,0.09256 -0.02939,0.205681 0,0.113116 0.01918,0.205666 0.04261,0.205666 0.02343,0 0.01748,0.06611 -0.01325,0.146904 -0.03491,0.09183 -0.03506,0.146906 -3.45e-4,0.146906 0.03051,0 0.03859,0.044 0.01793,0.09778 -0.02459,0.06406 -0.01467,0.08367 0.02875,0.05683 0.03971,-0.02453 0.03324,0.02271 -0.01613,0.117856 -0.05431,0.104667 -0.06418,0.192847 -0.02897,0.258637 0.02938,0.0549 0.03788,0.115363 0.0189,0.134356 -0.04671,0.04671 -0.04013,0.841159 0.0075,0.918389 0.0209,0.03382 0.01354,0.06148 -0.01634,0.06148 -0.03138,0 -0.03618,0.09929 -0.01136,0.235051 0.02646,0.144643 0.02065,0.235045 -0.0151,0.235045 -0.03193,0 -0.02514,0.03967 0.0151,0.08814 0.04024,0.04848 0.05008,0.08855 0.02189,0.08904 -0.0282,6.04e-4 -0.01161,0.02654 0.03688,0.05787 0.05041,0.03258 0.0588,0.05735 0.01959,0.05787 -0.05004,6.04e-4 -0.06898,0.342598 -0.07012,1.26569 -0.0012,0.964496 0.01508,1.254804 0.06855,1.22272 0.05368,-0.03221 0.05411,-0.02221 0.0017,0.04266 -0.04488,0.05563 -0.07071,0.407597 -0.07522,1.02492 -0.0038,0.517105 -0.0081,0.979855 -0.0096,1.028334 -0.02537,0.802113 0.03491,3.925472 0.07677,3.977882 0.03086,0.03861 0.04738,0.131166 0.03673,0.205664 -0.01339,0.09352 0.03981,0.188817 0.171774,0.307857 0.105125,0.09483 0.191137,0.197112 0.191137,0.227308 0,0.08474 0.352345,0.372624 0.619123,0.50586 0.332222,0.165922 1.264335,0.190087 6.784869,0.17591 0.66254,-0.0016 1.667368,-0.0016 2.232951,6.03e-4 2.33942,0.0082 16.91687,0.01272 17.187841,0.0054 0.161596,-0.0044 3.797486,-0.01665 8.079757,-0.02726 4.282271,-0.01061 7.832348,-0.02374 7.88906,-0.02915 0.05671,-0.0054 0.173811,-0.04653 0.260218,-0.09136 0.0864,-0.04483 0.18544,-0.06457 0.220073,-0.04386 0.03831,0.0229 0.03655,0.0045 -0.0044,-0.04708 -0.05143,-0.06448 -0.04939,-0.101442 0.0084,-0.154651 0.04182,-0.03846 0.09128,-0.05462 0.109988,-0.03593 0.0187,0.01869 0.06053,-0.03578 0.09295,-0.121056 0.03244,-0.08528 0.08298,-0.155054 0.112314,-0.155054 0.0293,0 0.0689,-0.04627 0.08789,-0.10283 0.01899,-0.05656 0.05763,-0.142503 0.08586,-0.190979 0.02826,-0.04847 0.07745,-0.141028 0.109357,-0.205666 0.03754,-0.076 0.05411,-3.057034 0.04697,-8.436335 -0.01005,-7.56252 -0.0028,-8.329341 0.08333,-8.434638 0.09206,-0.112963 0.333792,-0.142717 0.535109,-0.06587 0.04846,0.01851 0.193913,0.05045 0.323191,0.07099 0.129278,0.02053 0.393704,0.112951 0.587619,0.205371 0.401655,0.191428 0.988807,0.689267 0.94563,0.801787 -0.019,0.04944 0.0036,0.06272 0.06596,0.03878 0.06318,-0.02422 0.0806,-0.01341 0.05229,0.03237 -0.0234,0.03782 -0.01529,0.06874 0.01792,0.06874 0.03323,0 0.0434,0.04425 0.0227,0.09834 -0.02988,0.07779 -0.01451,0.08942 0.07351,0.05566 0.06119,-0.02348 0.09379,-0.02523 0.07244,-0.004 -0.02134,0.02134 0.02319,0.105672 0.09899,0.187402 0.161344,0.174001 0.615531,1.068634 0.656106,1.292333 0.01536,0.08479 0.04567,0.182448 0.06722,0.217032 0.02162,0.03458 0.04645,0.108841 0.05521,0.165015 0.0087,0.05618 0.08284,0.240877 0.164645,0.410446 0.08181,0.169571 0.1597,0.361595 0.17311,0.426722 0.01338,0.06513 0.05649,0.210959 0.0957,0.324076 0.143784,0.414627 0.154556,0.454149 0.192071,0.705142 0.0121,0.08079 0.05357,0.225581 0.09218,0.321741 0.03863,0.09616 0.08343,0.281261 0.09957,0.411335 0.01616,0.130071 0.04525,0.27616 0.06467,0.324638 0.01942,0.04847 0.04041,0.160176 0.04675,0.248221 0.0064,0.08804 0.04012,0.194636 0.07516,0.236874 0.03508,0.04223 0.07716,0.142078 0.09358,0.221871 0.01643,0.0798 0.04433,0.211189 0.06204,0.291986 0.01765,0.0808 0.06097,0.304867 0.09612,0.497935 0.03514,0.193065 0.08869,0.397216 0.118898,0.453663 0.03024,0.05645 0.06687,0.229023 0.08143,0.383494 0.01458,0.154473 0.03914,0.346964 0.05456,0.427762 0.01544,0.08079 0.04511,0.305561 0.06596,0.499475 0.02085,0.193916 0.04667,0.418679 0.05742,0.499476 0.0894,0.673629 0.142753,1.490999 0.156306,2.394546 0.005,0.331272 0.02447,0.602312 0.04333,0.602316 0.04596,1.3e-5 0.05976,0.32011 0.07989,1.854474 l 0.017,1.296247 0.155445,0.167638 0.155446,0.167637 2.251873,-0.0072 c 1.238521,-0.004 2.423739,-0.0052 2.633822,-0.0029 0.21007,0.0022 0.415,0.0013 0.45541,-0.0025 0.17487,-0.01592 0.24486,-0.01607 0.69433,-0.0016 0.26068,0.0084 0.50937,-0.0066 0.55262,-0.03337 0.0448,-0.0277 0.0646,-0.02575 0.0458,0.0046 -0.0363,0.05884 3.76093,0.06446 3.91383,0.0058 0.0511,-0.0196 0.10541,-0.01543 0.1207,0.0093 0.0154,0.02476 0.16951,0.02939 0.34272,0.01033 0.1732,-0.01906 0.39291,-0.01879 0.48825,6.04e-4 0.0953,0.01941 0.55203,0.02752 1.01489,0.01802 0.8093,-0.01659 0.84646,-0.01212 0.96957,0.116111 0.0704,0.07335 0.13675,0.171572 0.14742,0.218277 0.0107,0.0467 0.0455,0.101033 0.0774,0.120736 0.0319,0.01969 0.0654,0.07284 0.0743,0.118078 0.009,0.04524 0.0493,0.161587 0.0894,0.258548 0.0402,0.09695 0.0855,0.229169 0.10061,0.293807 0.0453,0.193261 0.0551,0.22857 0.10569,0.381952 0.0266,0.08079 0.0705,0.161191 0.0975,0.178651 0.0417,0.02695 0.13797,0.412425 0.24976,0.999524 0.0151,0.07918 0.0414,0.18363 0.0584,0.232109 0.0171,0.04847 0.0443,0.194568 0.0605,0.324639 0.0162,0.130073 0.0542,0.301952 0.0846,0.381952 0.0305,0.07999 0.0561,0.165679 0.0572,0.1904 0.005,0.116832 0.14559,0.919774 0.19541,1.115012 0.0431,0.168756 0.0931,0.228821 0.21555,0.258785 0.0877,0.02144 0.18134,0.06801 0.20803,0.103423 0.0344,0.04568 0.0572,0.04305 0.0784,-0.009 0.0164,-0.0404 0.0556,-0.07345 0.0871,-0.07345 0.0316,0 0.0409,0.02645 0.0211,0.05876 -0.02,0.03232 0.004,0.05876 0.0518,0.05876 0.0485,0 0.10448,-0.02645 0.12447,-0.05876 0.02,-0.03232 0.076,-0.05876 0.12444,-0.05876 0.049,0 0.0705,0.02861 0.0481,0.06463 -0.0281,0.04537 -0.003,0.04472 0.0848,-0.0022 0.10304,-0.05515 0.14778,-0.04535 0.25684,0.0562 0.11366,0.105837 0.13486,0.194575 0.15216,0.636844 0.0248,0.634216 -0.003,0.664258 -0.62532,0.699746 -0.2722,0.01548 -0.48634,0.05806 -0.53744,0.106819 -0.11207,0.106937 -0.14972,0.792057 -0.0471,0.858432 0.0569,0.0368 0.0536,0.0605 -0.0147,0.105343 -0.0485,0.03182 -0.0593,0.05826 -0.0242,0.05876 0.0388,6.04e-4 0.0619,0.127687 0.0587,0.324099 -0.003,0.17776 0.009,0.323194 0.0269,0.32319 0.0814,-2.1e-5 0.11216,5.334432 0.0348,6.02308 -0.0217,0.193915 -0.0462,0.418677 -0.0542,0.499476 -0.008,0.08079 -0.0355,0.179959 -0.0612,0.220359 -0.0262,0.04138 -0.02,0.07345 0.0143,0.07345 0.04,0 0.0423,0.04857 0.007,0.141905 -0.0593,0.155871 0.0189,0.532822 0.12389,0.59773 0.0344,0.0213 0.22521,0.04621 0.42385,0.05531 0.46292,0.02124 0.42615,0.01295 0.53326,0.120063 0.0714,0.07138 0.0923,0.223076 0.0923,0.668564 0,0.688112 -0.0319,0.731905 -0.54641,0.748516 -0.48063,0.01554 -0.67025,0.102597 -0.72423,0.332603 -0.0974,0.41501 -0.12264,0.556025 -0.17147,0.957879 -0.0229,0.189117 -0.0526,0.396745 -0.066,0.46138 -0.0133,0.06464 -0.0386,0.236517 -0.0562,0.381957 -0.0177,0.145427 -0.0578,0.365244 -0.0891,0.488468 -0.0621,0.243606 -0.0842,0.375051 -0.1735,1.03416 -0.0325,0.239539 -0.11297,0.5833 -0.17887,0.763904 -0.0659,0.180595 -0.13338,0.381253 -0.14993,0.445888 -0.0166,0.06465 -0.0671,0.200845 -0.11238,0.302689 -0.0453,0.101844 -0.0823,0.202453 -0.0823,0.223581 0,0.02113 -0.0563,0.162567 -0.12507,0.314312 -0.15749,0.347432 -0.44551,0.716613 -0.5591,0.716613 -0.0476,0 -0.0737,0.02099 -0.0579,0.04661 0.0159,0.02554 -0.0421,0.05279 -0.12873,0.06047 -0.0867,0.0075 -0.23089,0.02276 -0.32056,0.03365 -0.0897,0.01088 -0.17744,-0.0036 -0.19503,-0.03202 -0.0176,-0.02846 -0.0535,-0.03849 -0.0798,-0.0222 -0.0263,0.01622 -4.23603,0.0311 -9.354853,0.03301 -8.11174,0.0029 -9.333853,-0.0078 -9.516243,-0.08401 -0.22695,-0.09483 -0.36874,-0.228988 -0.307123,-0.290608 0.02124,-0.0212 0.01236,-0.03863 -0.01976,-0.03863 -0.03814,0 -0.0568,-1.299624 -0.05377,-3.746067 0.0028,-2.06034 -0.0044,-3.814771 -0.01547,-3.898724 -0.01109,-0.08397 -0.08026,-0.228068 -0.153753,-0.320231 -0.131319,-0.164684 -0.143612,-0.167483 -0.714474,-0.162523 -1.202346,0.01048 -1.241621,0.023 -1.27236,0.406264 -0.01015,0.126485 -0.04128,0.26693 -0.06919,0.312089 -0.03156,0.05109 -0.02876,0.06854 0.0074,0.0462 0.03659,-0.0226 0.05627,0.137207 0.05315,0.43162 -0.0029,0.257145 -0.02636,0.467544 -0.0525,0.467544 -0.02613,1.6e-5 -0.02691,0.03308 -0.0016,0.07347 0.08038,0.1288 0.0835,0.298507 0.0064,0.347453 -0.0501,0.03178 -0.05242,0.04768 -0.0071,0.0483 0.101007,0.0011 0.105715,5.156548 0.0049,5.281236 -0.05212,0.06441 -0.05287,0.07779 -0.0029,0.04768 0.103654,-0.06217 0.106615,5.605372 0.0029,5.671209 -0.05009,0.03182 -0.05173,0.04648 -0.0052,0.04706 0.04875,5.49e-4 0.06973,0.413213 0.07562,1.488243 0.008,1.450996 0.0051,1.490142 -0.117765,1.601269 -0.116139,0.105045 -0.221401,0.113905 -1.353679,0.113905 -0.778708,0 -1.228089,-0.02153 -1.228672,-0.0587 -6.03e-4,-0.03901 -0.01546,-0.03892 -0.04409,0 -0.02375,0.03238 -0.224124,0.05888 -0.445292,0.0587 -0.375993,0 -0.411328,-0.01168 -0.543918,-0.176502 l -0.141798,-0.17629 0.0044,-7.855723 c 0.0029,-5.305404 -0.01533,-7.892578 -0.05636,-7.969249 -0.03342,-0.06246 -0.160835,-0.136817 -0.283154,-0.165278 -0.191958,-0.04467 -28.045152,-0.06631 -29.919035,-0.02328 -0.519111,0.01191 -0.691847,0.03671 -0.773829,0.110965 -0.100528,0.09108 -0.105681,0.472278 -0.108445,8.02125 -0.0026,7.06689 -0.01281,7.940743 -0.09426,8.065062 -0.05025,0.07673 -0.137025,0.143401 -0.192838,0.148231 -0.430581,0.03735 -3.195493,0.0092 -3.318661,-0.03386 z M 44.977665,51.296846 c 0,-0.01425 -0.02644,-0.04226 -0.05876,-0.06223 -0.03232,-0.01997 -0.05876,-0.0084 -0.05876,0.02592 0,0.03422 0.02644,0.06223 0.05876,0.06223 0.03231,0 0.05876,-0.01167 0.05876,-0.02592 z m 2.328382,15.521885 c -0.100328,-0.03344 -0.148957,-0.104096 -0.17281,-0.251084 -0.01826,-0.112498 -0.03307,-2.881276 -0.03291,-6.152836 1.67e-4,-3.271561 -0.0012,-6.543257 -0.0029,-7.270435 -0.003,-1.209842 0.0202,-1.895606 0.07436,-2.20357 0.02001,-0.113734 0.07069,-0.117844 1.572265,-0.12747 0.853375,-0.0055 1.820855,-0.01531 2.14995,-0.02187 l 0.598356,-0.01192 0.03465,-0.213181 c 0.01906,-0.117251 0.04473,-0.366941 0.05705,-0.554869 0.03949,-0.602506 -0.09229,-0.570019 2.290553,-0.564639 1.478036,0.0033 2.088581,0.02417 2.155405,0.07354 0.157323,0.116231 0.22243,0.297531 0.237326,0.660877 0.01513,0.369154 0.09059,0.571838 0.223757,0.601 0.06376,0.01396 21.235948,0.02887 21.486635,0.01513 0.1198,-0.0066 0.20041,-0.301838 0.20041,-0.734101 v -0.431254 l 0.206315,-0.0979 c 0.113478,-0.05385 0.232471,-0.08175 0.264429,-0.06199 0.03196,0.01975 0.08854,0.01711 0.125727,-0.0059 0.03719,-0.02298 0.427221,-0.03444 0.866739,-0.02547 0.439517,0.009 1.208985,0.01403 1.709931,0.01123 0.91009,-0.0051 1.335778,0.02565 1.26973,0.0917 -0.01925,0.01927 0.02432,0.06542 0.09683,0.102554 0.0934,0.04783 0.128589,0.114032 0.120621,0.226942 -0.0062,0.08769 0.0108,0.145786 0.03778,0.129118 0.02698,-0.01667 0.0271,0.06695 6.04e-4,0.185799 -0.05222,0.231519 -0.01651,0.340823 0.165059,0.505137 0.104411,0.09449 0.299927,0.104926 2.188739,0.116866 1.924642,0.01217 2.075181,0.02052 2.089167,0.115943 0.0084,0.05656 -0.01059,0.102833 -0.04195,0.102833 -0.03181,0 -0.03601,0.03249 -0.0095,0.07345 0.07108,0.109817 0.06089,2.041787 -0.01077,2.042875 -0.03529,5.34e-4 -0.03323,0.01834 0.0052,0.04408 0.07549,0.05064 0.07853,1.177063 0.0035,1.294435 -0.02673,0.04181 -0.02337,0.107922 0.0075,0.146904 0.06459,0.08163 0.05831,0.684224 -0.0083,0.791925 -0.02569,0.04158 -0.01517,0.07224 0.02478,0.07224 0.04898,0 0.04566,0.02929 -0.01121,0.09942 -0.04632,0.0571 -0.05103,0.08167 -0.01109,0.0577 0.07646,-0.04586 0.07407,0.175666 -0.0032,0.300767 -0.0248,0.04016 -0.01373,0.07097 0.02558,0.07097 0.05173,0 0.05079,0.02247 -0.0037,0.08814 -0.05897,0.07106 -0.05753,0.08832 0.0075,0.08904 0.06334,7.11e-4 0.06174,0.01312 -0.0075,0.05787 -0.04847,0.03133 -0.0585,0.05737 -0.02226,0.05787 0.08264,0.0012 0.07621,0.59986 -0.0071,0.661072 -0.03602,0.02645 -0.02934,0.04353 0.01728,0.04407 0.08257,9.16e-4 0.07429,0.182803 -0.01112,0.244707 -0.0293,0.02123 -0.0309,0.08634 -0.0037,0.146907 0.06845,0.151874 0.06725,0.335565 -0.0025,0.387881 -0.03918,0.02937 -0.03918,0.05876 0,0.08815 0.08297,0.06222 0.105412,0.326109 0.02343,0.275441 -0.04499,-0.02779 -0.04788,-0.0066 -0.0095,0.07003 0.06499,0.129861 0.06341,0.373561 -0.0031,0.477186 -0.02905,0.0453 -0.01766,0.0738 0.0298,0.07435 0.05589,6.03e-4 0.05283,0.01646 -0.01121,0.05787 -0.05816,0.03759 -0.06329,0.05727 -0.01504,0.05787 0.07642,9.16e-4 0.0738,0.154072 -0.0049,0.28002 -0.02522,0.0404 -0.02535,0.106506 -6.03e-4,0.146903 0.07006,0.113029 0.06142,3.158276 -0.0089,3.159352 -0.03465,6.03e-4 -0.03235,0.01871 0.0056,0.04407 0.08483,0.05671 0.0812,1.612354 -0.004,1.672912 -0.03968,0.02824 -0.03652,0.04348 0.0091,0.04408 0.08542,0.0013 0.07666,0.235584 -0.0088,0.236847 -0.03352,6.04e-4 -0.02129,0.02695 0.02719,0.05876 0.07835,0.05143 0.07835,0.0643 0,0.115724 -0.06932,0.0455 -0.07091,0.05806 -0.0075,0.05876 0.06502,6.03e-4 0.06647,0.01799 0.0075,0.08905 -0.04023,0.04847 -0.04973,0.08814 -0.0211,0.08814 0.06294,0 0.0689,0.794462 0.0064,0.856934 -0.05989,0.0599 -0.0561,0.156388 0.0047,0.11883 0.04183,-0.02585 0.04641,0.172434 0.006,0.258233 -0.02783,0.05906 -0.0413,0.150828 -0.04793,0.32665 -0.0037,0.09886 -0.04432,0.231074 -0.09018,0.293813 -0.08228,0.112519 -0.351464,0.114062 -19.890887,0.114062 -10.894114,0 -19.870308,-0.02095 -19.947097,-0.04653 z"
       id="path7043"
       sodipodi:nodetypes="cscsccssccsssccsscsssssssssscsccccssscscssssssscsscsccsscccsccccsssccccscsssssscsssscssccssscsssccsccssccssssscsssssscscsscscsscscssssscccscssccsssscsscsssccsscsccscssccccssccscsccsscssscccscccscscscscssccccssccscssscscsssccsccsssccscccscccsssscsscssscscsccscccccsccscssscscccsccccsssccsccssscsscccsssssssscscscsscssscscssccccscscsscssssscsssssscsscscsccsssccscscccsccssccsssscssss"
       inkscape:export-filename="../../www/public/pwa-192x192-any.png"
       inkscape:export-xdpi="40.06958"
       inkscape:export-ydpi="40.06958" /></g></svg>
